<svg xmlns="http://www.w3.org/2000/svg" xmlns:xlink="http://www.w3.org/1999/xlink" width="377.481" height="172.273" viewBox="0 0 377.481 172.273">
  <defs>
    <clipPath id="clip-path">
      <rect id="Rectangle_286" data-name="Rectangle 286" width="377.481" height="172.273" fill="none"/>
    </clipPath>
  </defs>
  <g id="Group_83" data-name="Group 83" transform="translate(0 0)">
    <g id="Group_82" data-name="Group 82" transform="translate(0 0)" clip-path="url(#clip-path)">
      <path id="Path_1" data-name="Path 1" d="M245.363,62.514l-.061.239.153.37.367.15.37-.153.121-.192,3.869-9.313.057-.243-.15-.367-.367-.153-.364.15-.131.195-2.1,5.063-2.1-5.063L244.9,53l-.367-.15-.367.153-.153.367.057.243,2.493,6.005Zm-6-2.886.153.367.367.153h1.038l.367-.153.153-.367-.153-.367-.367-.153h-.52V50.248l-.15-.367-.367-.153-.367.153-.153.367Zm-4.642,0,.15.367.367.153h1.038l.367-.153.153-.367-.153-.367-.367-.153h-.517V50.248l-.153-.367-.367-.153-.367.153-.15.367Zm-3.608,0,.153.367.367.153.367-.153.15-.367V56.5a3.64,3.64,0,1,0-1.038,2.551Zm-.76-4.971a2.6,2.6,0,1,1-1.836-.76,2.513,2.513,0,0,1,1.836.76m-8.939,3.812a2.477,2.477,0,0,1-1.692.639,2.605,2.605,0,1,1,0-5.21,2.474,2.474,0,0,1,1.7.645l.332.115.367-.153.15-.367-.182-.405a3.636,3.636,0,0,0-6,2.771,3.635,3.635,0,0,0,3.636,3.646,3.487,3.487,0,0,0,2.366-.878l.163-.386-.15-.367-.367-.153-.319.105m-9.453,1.159.153.367.367.153.364-.153.153-.367V53.374l-.153-.367-.364-.153-.367.153-.153.367Zm.977-8.8-.457-.195-.46.195-.192.457.192.46.46.195.457-.195.192-.46-.192-.457M199.535,55.72a1.759,1.759,0,0,1,.533-1.29,1.815,1.815,0,0,1,2.57,0,1.756,1.756,0,0,1,.53,1.29v3.908l.153.367.367.153.367-.153.153-.367V55.72a1.815,1.815,0,0,1,1.816-1.823,1.82,1.82,0,0,1,1.817,1.823v3.908l.153.367.367.153.367-.153.15-.367V55.72a2.851,2.851,0,0,0-4.872-2.027l-.319.37-.316-.37a2.756,2.756,0,0,0-2.021-.84,2.718,2.718,0,0,0-1.817.658v-.137l-.153-.367-.367-.153-.367.153-.15.367v6.254l.15.367.367.153.367-.153.153-.367Zm-5.565,2.768a2.447,2.447,0,0,1-1.676.619,2.5,2.5,0,0,1-1.836-.763,2.528,2.528,0,0,1-.715-1.322h5.667l.367-.153.153-.367a3.637,3.637,0,1,0-1.267,2.768l.15-.374-.153-.367-.367-.153-.322.112m-4.227-2.509a2.528,2.528,0,0,1,.715-1.322,2.6,2.6,0,0,1,3.675,0,2.523,2.523,0,0,1,.712,1.322Zm-10.4,3.649.15.367.367.153.367-.153.153-.367V56.24a2.268,2.268,0,0,1,.683-1.657,2.335,2.335,0,0,1,3.987,1.657v3.387l.153.367.367.153.367-.153.153-.367V56.24a3.384,3.384,0,0,0-3.374-3.387,3.237,3.237,0,0,0-2.337.945v-3.55l-.153-.367-.367-.153-.367.153-.15.367ZM176,58.194a4.146,4.146,0,0,1-5.536-.31,4.169,4.169,0,0,1,2.94-7.116,3.953,3.953,0,0,1,2.56.888l.37.156.367-.153.153-.37-.15-.37a5.045,5.045,0,0,0-3.3-1.191,5.21,5.21,0,0,0,0,10.42,5.083,5.083,0,0,0,3.263-1.159l.15-.364-.153-.367L176.3,58.1l-.3.093m-16.818-4.246-.026-.026a3.661,3.661,0,1,0,1.063,2.58V50.235l-.15-.367-.367-.153-.367.153-.153.367Zm-.76,4.4a2.617,2.617,0,1,1,.76-1.842,2.495,2.495,0,0,1-.76,1.842m-10.114,1.283.153.367.367.153h1.038l.367-.153.153-.367-.153-.367-.367-.153h-.517V50.248l-.153-.367-.367-.153-.367.153-.153.367Zm-7.758,0,.153.367.364.153.367-.153.153-.367V56.5a2.594,2.594,0,0,1,2.6-2.605,2.553,2.553,0,0,1,1.012.195l.23.051.364-.153.153-.367-.15-.37-.214-.137a3.608,3.608,0,0,0-1.4-.262,3.536,3.536,0,0,0-2.6,1.1v-.575l-.153-.367-.367-.153-.364.153-.153.367Zm-4.364-4.971a2.607,2.607,0,0,1-1.839,4.45,2.605,2.605,0,1,1,1.839-4.45m.731-.734a3.633,3.633,0,0,0-6.2,2.58,3.635,3.635,0,0,0,3.633,3.646,3.49,3.49,0,0,0,2.57-1.066,3.653,3.653,0,0,0,0-5.159m-14.481-3.85-2.1,7.608-2.1-7.608-.125-.195-.37-.15-.367.153-.15.367.038.23,2.548,9.239.163.275.364.156.37-.156.163-.281,2.062-7.5,2.072,7.5.163.275.364.156.367-.156.163-.281,2.544-9.233.038-.23-.153-.367-.364-.153-.364.15-.131.195-2.1,7.608-2.1-7.608-.125-.195-.37-.15-.361.15-.131.195M108.191,60.148a1.971,1.971,0,0,1-.52,1.245,2.844,2.844,0,0,1-4.035,0l-.5-.658-.112-.156-.367-.15-.367.153-.153.367.077.275a3.925,3.925,0,0,0,.69.9,3.885,3.885,0,0,0,5.51,0,2.751,2.751,0,0,0,.817-1.979V56.5a3.641,3.641,0,1,0-1.066,2.58l.029-.029Zm-.76-5.491a2.6,2.6,0,1,1-1.839-.76,2.526,2.526,0,0,1,1.839.76M92.644,59.628l.15.367.367.153.367-.153.153-.367V56.24a2.337,2.337,0,1,1,4.674,0v3.387l.153.367.364.153.367-.153.153-.367V56.24a3.384,3.384,0,0,0-3.374-3.387,3.237,3.237,0,0,0-2.337.945v-.425l-.153-.367-.367-.153-.367.153-.15.367Zm-4.125,0,.153.367.367.153.364-.153.153-.367V53.374l-.153-.367-.364-.153-.367.153-.153.367Zm.977-8.8-.457-.195-.46.195-.192.457.192.46.46.195.457-.195.192-.46-.192-.457m-6.139,6.711V53.9H84.4l.367-.153.153-.37-.153-.367-.367-.153H83.357V50.248l-.153-.367-.367-.153-.367.153-.153.367v2.605H81.8l-.364.153-.153.367.153.37.364.153h.52v3.646a2.3,2.3,0,0,0,2.6,2.605l.367-.153.153-.367-.153-.367-.367-.153a1.378,1.378,0,0,1-1.555-1.564m-5.545.926a2.584,2.584,0,0,1-3.534-.125A2.6,2.6,0,0,1,76.116,53.9a2.482,2.482,0,0,1,1.7.645l.329.115.367-.153.153-.367-.182-.405a3.647,3.647,0,1,0,0,5.539l.163-.386-.153-.367-.367-.153-.316.105m-9.858.019a2.444,2.444,0,0,1-1.673.619,2.617,2.617,0,0,1-2.551-2.085H69.4l.367-.153.15-.367a3.632,3.632,0,1,0-1.264,2.768l.15-.374-.153-.367-.367-.153-.326.112m-4.224-2.509a2.6,2.6,0,0,1,5.1,0Zm-10.4,3.649.153.367.367.153.367-.153.15-.367V56.24a2.337,2.337,0,1,1,4.674,0v3.387l.153.367.367.153.367-.153.153-.367V56.24A3.373,3.373,0,0,0,54.366,53.8v-.425l-.15-.367-.367-.153-.367.153-.153.367Zm-9.316,0,.153.367.364.153.367-.153.153-.367V56.24a2.258,2.258,0,0,1,.686-1.657,2.331,2.331,0,0,1,3.3,0,2.268,2.268,0,0,1,.683,1.657v3.387l.153.367.367.153.364-.153.153-.367V56.24A3.371,3.371,0,0,0,45.05,53.8v-.425l-.153-.367-.367-.153-.364.153-.153.367Zm-4.364-4.971a2.607,2.607,0,0,1-1.839,4.45,2.6,2.6,0,0,1-2.6-2.605,2.526,2.526,0,0,1,.76-1.845,2.6,2.6,0,0,1,3.675,0m.731-.734a3.653,3.653,0,1,0,1.066,2.58,3.493,3.493,0,0,0-1.066-2.58M30.83,58.194a4.142,4.142,0,0,1-5.533-.31,4.169,4.169,0,0,1,2.937-7.116,3.961,3.961,0,0,1,2.564.888l.37.156.367-.153.15-.37-.147-.37a5.053,5.053,0,0,0-3.3-1.191,5.21,5.21,0,0,0,0,10.42A5.1,5.1,0,0,0,31.5,58.989l.147-.364-.153-.367-.364-.156-.3.093" transform="translate(50.524 109)" fill="#fff"/>
      <path id="Path_2" data-name="Path 2" d="M338.085,53.082h35.788V40.905H352.059V.546H338.085ZM310.5,11.011l6.612,22.747H304.191ZM298.6,53.082l2.557-9.028H319.9l2.694,9.028h14.178L320.961.546H299.794L283.979,53.082ZM270.159,34.852q0,3.97-1.638,5.3-1.6,1.3-6.577,1.3-5.588,0-7.327-1.915-1.7-1.949-1.7-8.141V21.444q0-5.574,1.67-7.423t7.225-1.845q4.908,0,6.612,1.366,1.738,1.336,1.74,4.754v.859h14.382v-2.26q0-9.884-4.294-13.373Q275.985,0,263.343,0q-14.179,0-19.5,4.412-5.316,4.377-5.315,15.081V34.578q0,10.128,4.635,14.606,4.636,4.444,14.414,4.447H266q9.884,0,14.213-4.208,4.329-4.238,4.329-13.032V33.381H270.159ZM219.969,53.082h13.974V.546H219.969Zm-71.113,0H162.83V15.733l12.2,37.349h12l12.2-37.349V53.082H213.2V.546H190.541l-9.51,33.042L170.875.546H148.856Zm-6.835,0V41.659H117.586V31.465h22.459V21.754H117.586V11.972h23.995V.546H103.612V53.082Zm-91.321,0H64.67V32.56h18.2V53.082H96.844V.546H82.871V20.384H64.67V.546H50.7ZM31.628,34.852q0,3.97-1.635,5.3-1.6,1.3-6.58,1.3-5.588,0-7.327-1.915-1.7-1.949-1.7-8.141V21.444q0-5.574,1.67-7.423t7.225-1.845q4.908,0,6.615,1.366,1.738,1.336,1.737,4.754v.859H46.01v-2.26q0-9.884-4.294-13.373Q37.454,0,24.812,0,10.633,0,5.319,4.412,0,8.789,0,19.493V34.578Q0,44.706,4.636,49.184q4.636,4.444,14.417,4.447h8.419q9.884,0,14.21-4.208,4.329-4.238,4.329-13.032V33.381H31.628Z" transform="translate(0 0)" fill="#fff"/>
      <path id="Path_3" data-name="Path 3" d="M323.129,73.795v28.432h21.508V73.795l29.377-52.437H349.2l-15,31.59-15.95-31.59h-24.5ZM260.2,37.467l10.174,35.012h-19.88Zm-18.309,64.76,3.933-13.9h28.854l4.144,13.9h21.824L276.3,21.358H243.725l-24.343,80.869ZM167.942,40.1h18.676q6.661,0,8.917,2.79,2.308,2.739,2.311,10.056V68.9q0,8.581-3.148,11.582a11.675,11.675,0,0,1-8.4,3h-18.36Zm22.137,62.126q15.741,0,22.823-7.371,7.083-7.423,7.081-24.375v-18.8q0-16.109-7.815-23.216-7.767-7.111-23.768-7.11H146.434v80.869ZM91.006,41.787q2.936-2.528,12.432-2.528,8.759,0,11.646,2.528,2.936,2.476,2.937,10.424v18.9q0,8.323-3.042,10.794-3.041,2.423-11.7,2.423-9.865,0-12.486-2.845-2.572-2.845-2.573-10.794l-.1-18.216q0-8.16,2.886-10.685M75.213,96.646q9.285,6.422,26.7,6.423,20.3,0,29.275-6.423t8.971-23.324V50.841q0-16.32-8.447-23.321t-26.913-7q-22.608,0-30.741,7.161Q65.977,34.835,65.98,50V74.376q0,15.846,9.233,22.271M1.581,40.1H22.565v62.126H44.073V40.1H65.061V21.358H1.581Z" transform="translate(3.466 44.979)" fill="red"/>
    </g>
  </g>
</svg>
