<svg width="2344" height="1091" viewBox="0 0 2344 1091" fill="none" xmlns="http://www.w3.org/2000/svg">
<path d="M25.3014 505.682V402.273H436.168V505.682H293.98V875H167.489V505.682H25.3014ZM913.706 638.636C913.706 691.264 903.472 735.659 883.006 771.822C862.54 807.83 834.918 835.144 800.14 853.764C765.363 872.23 726.584 881.463 683.805 881.463C640.718 881.463 601.786 872.153 567.008 853.533C532.385 834.76 504.84 807.369 484.373 771.36C464.061 735.198 453.904 690.956 453.904 638.636C453.904 586.009 464.061 541.69 484.373 505.682C504.84 469.519 532.385 442.205 567.008 423.739C601.786 405.12 640.718 395.81 683.805 395.81C726.584 395.81 765.363 405.12 800.14 423.739C834.918 442.205 862.54 469.519 883.006 505.682C903.472 541.69 913.706 586.009 913.706 638.636ZM781.674 638.636C781.674 610.322 777.904 586.47 770.364 567.081C762.978 547.538 751.975 532.765 737.356 522.763C722.891 512.607 705.041 507.528 683.805 507.528C662.569 507.528 644.642 512.607 630.023 522.763C615.558 532.765 604.555 547.538 597.015 567.081C589.629 586.47 585.936 610.322 585.936 638.636C585.936 666.951 589.629 690.879 597.015 710.423C604.555 729.812 615.558 744.585 630.023 754.741C644.642 764.743 662.569 769.744 683.805 769.744C705.041 769.744 722.891 764.743 737.356 754.741C751.975 744.585 762.978 729.812 770.364 710.423C777.904 690.879 781.674 666.951 781.674 638.636ZM1148.47 875H966.585V402.273H1146.63C1195.25 402.273 1237.26 411.736 1272.66 430.664C1308.2 449.438 1335.6 476.521 1354.83 511.914C1374.22 547.153 1383.91 589.394 1383.91 638.636C1383.91 687.879 1374.3 730.196 1355.06 765.589C1335.83 800.829 1308.59 827.912 1273.35 846.839C1238.11 865.613 1196.49 875 1148.47 875ZM1094.92 766.051H1143.86C1167.25 766.051 1187.18 762.281 1203.64 754.741C1220.26 747.201 1232.88 734.197 1241.5 715.732C1250.27 697.266 1254.65 671.567 1254.65 638.636C1254.65 605.705 1250.19 580.007 1241.27 561.541C1232.49 543.075 1219.57 530.072 1202.49 522.532C1185.56 514.992 1164.79 511.222 1140.16 511.222H1094.92V766.051ZM1529.76 875H1391.26L1547.3 402.273H1722.73L1878.76 875H1740.27L1636.86 532.457H1633.17L1529.76 875ZM1503.91 688.494H1764.28V784.517H1503.91V688.494ZM1850.16 402.273H1993.27L2085.6 594.318H2089.3L2181.63 402.273H2324.74L2151.16 726.349V875H2023.74V726.349L1850.16 402.273Z" fill="#085EAB"/>
<path d="M310.68 121.455H224.959C224.351 114.362 222.73 107.928 220.095 102.152C217.562 96.3764 214.016 91.4114 209.456 87.2571C204.998 83.0014 199.577 79.759 193.193 77.5298C186.81 75.1993 179.565 74.0341 171.459 74.0341C157.273 74.0341 145.266 77.4792 135.438 84.3693C125.71 91.2595 118.313 101.139 113.247 114.007C108.282 126.875 105.8 142.328 105.8 160.364C105.8 179.413 108.333 195.372 113.399 208.24C118.567 221.007 126.014 230.633 135.741 237.118C145.469 243.501 157.172 246.693 170.851 246.693C178.653 246.693 185.644 245.731 191.825 243.805C198.006 241.779 203.376 238.891 207.936 235.142C212.496 231.393 216.194 226.884 219.031 221.615C221.97 216.245 223.946 210.216 224.959 203.528L310.68 204.136C309.667 217.309 305.969 230.734 299.585 244.413C293.202 257.991 284.133 270.555 272.379 282.107C260.727 293.556 246.288 302.777 229.062 309.768C211.837 316.76 191.825 320.256 169.027 320.256C140.453 320.256 114.818 314.125 92.1207 301.865C69.5251 289.605 51.6411 271.569 38.4688 247.757C25.3977 223.946 18.8622 194.814 18.8622 160.364C18.8622 125.71 25.5497 96.5284 38.9247 72.8182C52.2997 49.0066 70.3357 31.0213 93.0327 18.8622C115.73 6.60179 141.061 0.471579 169.027 0.471579C188.684 0.471579 206.771 3.15671 223.287 8.52697C239.803 13.8972 254.293 21.75 266.756 32.0852C279.219 42.3191 289.25 54.9342 296.849 69.9304C304.449 84.9266 309.059 102.101 310.68 121.455ZM349.02 316V4.72726H433.525V126.318H545.389V4.72726H629.895V316H545.389V194.409H433.525V316H349.02ZM670.02 316V4.72726H894.355V72.8182H754.525V126.318H882.804V194.409H754.525V247.909H893.747V316H670.02ZM936.266 4.72726H1041.44L1113.79 181.034H1117.44L1189.78 4.72726H1294.96V316H1212.28V136.045H1209.85L1140.54 313.568H1090.69L1021.38 134.83H1018.95V316H936.266V4.72726ZM1419.51 4.72726V316H1335.01V4.72726H1419.51ZM1750.16 121.455H1664.44C1663.84 114.362 1662.21 107.928 1659.58 102.152C1657.05 96.3764 1653.5 91.4114 1648.94 87.2571C1644.48 83.0014 1639.06 79.759 1632.68 77.5298C1626.29 75.1993 1619.05 74.0341 1610.94 74.0341C1596.76 74.0341 1584.75 77.4792 1574.92 84.3693C1565.19 91.2595 1557.8 101.139 1552.73 114.007C1547.77 126.875 1545.28 142.328 1545.28 160.364C1545.28 179.413 1547.82 195.372 1552.88 208.24C1558.05 221.007 1565.5 230.633 1575.23 237.118C1584.95 243.501 1596.66 246.693 1610.34 246.693C1618.14 246.693 1625.13 245.731 1631.31 243.805C1637.49 241.779 1642.86 238.891 1647.42 235.142C1651.98 231.393 1655.68 226.884 1658.52 221.615C1661.45 216.245 1663.43 210.216 1664.44 203.528L1750.16 204.136C1749.15 217.309 1745.45 230.734 1739.07 244.413C1732.69 257.991 1723.62 270.555 1711.86 282.107C1700.21 293.556 1685.77 302.777 1668.55 309.768C1651.32 316.76 1631.31 320.256 1608.51 320.256C1579.94 320.256 1554.3 314.125 1531.61 301.865C1509.01 289.605 1491.13 271.569 1477.95 247.757C1464.88 223.946 1458.35 194.814 1458.35 160.364C1458.35 125.71 1465.03 96.5284 1478.41 72.8182C1491.78 49.0066 1509.82 31.0213 1532.52 18.8622C1555.21 6.60179 1580.55 0.471579 1608.51 0.471579C1628.17 0.471579 1646.26 3.15671 1662.77 8.52697C1679.29 13.8972 1693.78 21.75 1706.24 32.0852C1718.7 42.3191 1728.73 54.9342 1736.33 69.9304C1743.93 84.9266 1748.54 102.101 1750.16 121.455ZM1859.75 316H1768.56L1871.3 4.72726H1986.81L2089.56 316H1998.36L1930.27 90.4489H1927.84L1859.75 316ZM1842.73 193.193H2014.17V256.42H1842.73V193.193ZM2119.54 316V4.72726H2204.04V247.909H2329.89V316H2119.54Z" fill="#089090"/>
<path d="M539.449 1016.57H532.655C532.582 1014.02 532.071 1011.66 531.121 1009.49C530.172 1007.3 528.845 1005.39 527.14 1003.75C525.436 1002.12 523.403 1000.86 521.041 999.956C518.703 999.055 516.086 998.605 513.188 998.605C508.416 998.605 503.85 999.859 499.492 1002.37C495.133 1004.85 491.383 1008.5 488.242 1013.32C485.101 1018.15 482.959 1024.04 481.814 1031C480.67 1037.87 480.852 1043.65 482.362 1048.35C483.872 1053.03 486.343 1056.57 489.776 1058.98C493.234 1061.39 497.288 1062.59 501.939 1062.59C504.909 1062.59 507.758 1062.14 510.485 1061.24C513.212 1060.34 515.72 1059.09 518.009 1057.48C520.298 1055.85 522.307 1053.94 524.036 1051.75C525.765 1049.56 527.104 1047.18 528.053 1044.62H534.92C533.727 1048.06 532.059 1051.26 529.916 1054.23C527.773 1057.18 525.241 1059.76 522.319 1061.97C519.422 1064.19 516.22 1065.92 512.713 1067.16C509.231 1068.4 505.53 1069.02 501.61 1069.02C495.231 1069.02 489.837 1067.43 485.43 1064.24C481.047 1061.05 477.93 1056.56 476.08 1050.76C474.254 1044.94 473.998 1038.09 475.313 1030.2C476.603 1022.45 479.075 1015.73 482.727 1010.04C486.404 1004.34 490.909 999.944 496.241 996.852C501.574 993.735 507.369 992.177 513.626 992.177C517.62 992.177 521.199 992.797 524.364 994.039C527.53 995.257 530.22 996.986 532.436 999.226C534.676 1001.44 536.393 1004.02 537.586 1006.97C538.779 1009.91 539.4 1013.12 539.449 1016.57ZM567.764 1069.17C562.845 1069.17 558.706 1067.93 555.346 1065.44C551.986 1062.94 549.612 1059.47 548.224 1055.03C546.836 1050.6 546.604 1045.49 547.53 1039.69C548.455 1034.05 550.293 1029.08 553.045 1024.79C555.821 1020.48 559.229 1017.13 563.271 1014.75C567.313 1012.34 571.708 1011.13 576.456 1011.13C581.399 1011.13 585.539 1012.39 588.875 1014.89C592.235 1017.4 594.609 1020.87 595.997 1025.3C597.409 1029.74 597.652 1034.86 596.727 1040.68C595.802 1046.3 593.951 1051.26 591.176 1055.55C588.4 1059.81 584.991 1063.14 580.949 1065.55C576.931 1067.96 572.536 1069.17 567.764 1069.17ZM567.837 1063.22C571.83 1063.22 575.385 1062.16 578.502 1060.04C581.643 1057.9 584.236 1055.05 586.281 1051.49C588.327 1047.91 589.702 1043.98 590.409 1039.69C591.066 1035.6 590.993 1031.84 590.189 1028.41C589.386 1024.97 587.84 1022.22 585.551 1020.15C583.262 1018.08 580.218 1017.05 576.42 1017.05C572.451 1017.05 568.896 1018.13 565.755 1020.3C562.614 1022.44 560.021 1025.32 557.975 1028.92C555.93 1032.5 554.567 1036.42 553.885 1040.68C553.203 1044.8 553.252 1048.56 554.031 1051.97C554.834 1055.37 556.381 1058.1 558.669 1060.15C560.983 1062.19 564.038 1063.22 567.837 1063.22ZM618.778 1032.94L612.971 1068H606.47L615.82 1011.9H622.139L620.678 1020.7H621.262C623.015 1017.83 625.438 1015.53 628.53 1013.8C631.647 1012.05 635.263 1011.17 639.378 1011.17C643.128 1011.17 646.293 1011.96 648.874 1013.54C651.479 1015.1 653.33 1017.4 654.426 1020.45C655.546 1023.49 655.741 1027.23 655.01 1031.66L648.911 1068H642.409L648.399 1032.06C649.154 1027.48 648.484 1023.85 646.39 1021.18C644.321 1018.47 641.119 1017.12 636.785 1017.12C633.838 1017.12 631.099 1017.76 628.567 1019.02C626.059 1020.29 623.94 1022.11 622.212 1024.5C620.483 1026.86 619.338 1029.67 618.778 1032.94ZM678.34 1032.94L672.532 1068H666.031L675.381 1011.9H681.7L680.239 1020.7H680.823C682.576 1017.83 684.999 1015.53 688.092 1013.8C691.208 1012.05 694.824 1011.17 698.939 1011.17C702.689 1011.17 705.854 1011.96 708.435 1013.54C711.041 1015.1 712.891 1017.4 713.987 1020.45C715.107 1023.49 715.302 1027.23 714.571 1031.66L708.472 1068H701.971L707.96 1032.06C708.715 1027.48 708.046 1023.85 705.952 1021.18C703.882 1018.47 700.68 1017.12 696.346 1017.12C693.4 1017.12 690.66 1017.76 688.128 1019.02C685.62 1020.29 683.502 1022.11 681.773 1024.5C680.044 1026.86 678.9 1029.67 678.34 1032.94ZM748.127 1069.17C742.892 1069.17 738.57 1067.95 735.162 1065.52C731.753 1063.06 729.366 1059.66 728.003 1055.33C726.639 1050.97 726.432 1045.95 727.382 1040.28C728.332 1034.63 730.206 1029.61 733.007 1025.23C735.807 1020.82 739.264 1017.38 743.379 1014.89C747.494 1012.39 751.962 1011.13 756.784 1011.13C759.827 1011.13 762.676 1011.69 765.33 1012.81C767.984 1013.91 770.237 1015.6 772.087 1017.89C773.962 1020.15 775.265 1023.01 775.995 1026.47C776.726 1029.91 776.701 1033.97 775.922 1038.67L775.411 1041.89H731.582L732.495 1036.15H769.713C770.322 1032.55 770.151 1029.31 769.202 1026.44C768.252 1023.56 766.633 1021.29 764.344 1019.61C762.08 1017.9 759.267 1017.05 755.907 1017.05C752.474 1017.05 749.223 1018.01 746.155 1019.93C743.112 1021.86 740.531 1024.37 738.412 1027.46C736.318 1030.53 734.967 1033.8 734.358 1037.28L733.628 1041.59C732.848 1046.34 732.946 1050.32 733.92 1053.54C734.894 1056.73 736.659 1059.14 739.216 1060.77C741.772 1062.4 745.047 1063.22 749.041 1063.22C751.719 1063.22 754.142 1062.8 756.309 1061.97C758.476 1061.15 760.363 1060.04 761.97 1058.65C763.577 1057.24 764.868 1055.69 765.842 1054.01L771.649 1056.02C770.407 1058.38 768.654 1060.56 766.389 1062.56C764.149 1064.55 761.483 1066.16 758.391 1067.38C755.323 1068.57 751.902 1069.17 748.127 1069.17ZM807.123 1069.17C802.058 1069.17 797.882 1067.91 794.595 1065.41C791.308 1062.9 789.007 1059.47 787.692 1055.11C786.401 1050.72 786.219 1045.76 787.144 1040.21C788.069 1034.56 789.932 1029.55 792.732 1025.19C795.532 1020.81 798.99 1017.38 803.105 1014.89C807.244 1012.39 811.761 1011.13 816.655 1011.13C820.429 1011.13 823.717 1011.86 826.517 1013.32C829.317 1014.76 831.484 1016.79 833.018 1019.42C834.552 1022.03 835.282 1025.07 835.209 1028.55H828.635C828.465 1025.32 827.284 1022.59 825.092 1020.37C822.925 1018.16 819.857 1017.05 815.888 1017.05C812.26 1017.05 808.9 1018.02 805.808 1019.97C802.715 1021.89 800.098 1024.59 797.955 1028.04C795.837 1031.48 794.412 1035.46 793.682 1039.99C792.903 1044.54 792.976 1048.57 793.901 1052.08C794.826 1055.56 796.482 1058.28 798.868 1060.26C801.279 1062.23 804.322 1063.22 807.999 1063.22C810.507 1063.22 812.869 1062.75 815.085 1061.83C817.301 1060.88 819.261 1059.54 820.965 1057.81C822.67 1056.06 823.972 1054 824.873 1051.64H831.447C830.352 1055.05 828.623 1058.07 826.261 1060.7C823.924 1063.32 821.123 1065.39 817.861 1066.9C814.598 1068.41 811.018 1069.17 807.123 1069.17ZM874.052 1011.9L873.139 1017.56H846.331L847.28 1011.9H874.052ZM857.836 998.459H864.374L855.243 1053.35C854.853 1055.69 854.95 1057.53 855.535 1058.87C856.119 1060.18 857.02 1061.12 858.238 1061.68C859.455 1062.22 860.794 1062.48 862.255 1062.48C863.107 1062.48 863.838 1062.44 864.447 1062.34C865.08 1062.22 865.64 1062.1 866.127 1061.97L866.602 1067.85C865.895 1068.1 865.055 1068.32 864.081 1068.51C863.107 1068.73 861.939 1068.84 860.575 1068.84C858.189 1068.84 855.985 1068.32 853.964 1067.27C851.943 1066.22 850.409 1064.66 849.362 1062.59C848.315 1060.52 848.035 1057.96 848.522 1054.89L857.836 998.459ZM879.54 1068L888.89 1011.9H895.428L886.078 1068H879.54ZM894.515 1002.15C893.151 1002.15 891.995 1001.68 891.045 1000.76C890.12 999.834 889.669 998.714 889.694 997.399C889.742 996.158 890.242 995.086 891.191 994.185C892.165 993.26 893.31 992.797 894.624 992.797C895.988 992.797 897.145 993.272 898.094 994.222C899.044 995.147 899.494 996.267 899.446 997.582C899.421 998.824 898.922 999.895 897.948 1000.8C896.974 1001.7 895.83 1002.15 894.515 1002.15ZM915.58 1032.94L909.773 1068H903.271L912.622 1011.9H918.94L917.479 1020.7H918.064C919.817 1017.83 922.24 1015.53 925.332 1013.8C928.449 1012.05 932.064 1011.17 936.179 1011.17C939.929 1011.17 943.095 1011.96 945.676 1013.54C948.281 1015.1 950.132 1017.4 951.227 1020.45C952.347 1023.49 952.542 1027.23 951.812 1031.66L945.712 1068H939.211L945.201 1032.06C945.956 1027.48 945.286 1023.85 943.192 1021.18C941.122 1018.47 937.92 1017.12 933.586 1017.12C930.64 1017.12 927.901 1017.76 925.368 1019.02C922.86 1020.29 920.742 1022.11 919.013 1024.5C917.284 1026.86 916.14 1029.67 915.58 1032.94ZM980.729 1090.21C976.907 1090.21 973.632 1089.71 970.904 1088.71C968.177 1087.74 965.962 1086.4 964.257 1084.69C962.577 1082.99 961.347 1081.08 960.568 1078.96L966.485 1075.49C967.021 1076.9 967.836 1078.29 968.932 1079.65C970.028 1081.01 971.574 1082.13 973.571 1083.01C975.567 1083.91 978.185 1084.36 981.423 1084.36C986.366 1084.36 990.615 1083.11 994.17 1080.6C997.725 1078.12 999.941 1074.27 1000.82 1069.06L1002.79 1056.42H1002.21C1001.21 1058.13 999.868 1059.83 998.188 1061.54C996.508 1063.22 994.426 1064.62 991.942 1065.74C989.483 1066.86 986.573 1067.42 983.213 1067.42C978.733 1067.42 974.934 1066.31 971.818 1064.09C968.701 1061.88 966.497 1058.71 965.207 1054.6C963.916 1050.46 963.758 1045.53 964.732 1039.8C965.657 1034.13 967.435 1029.14 970.064 1024.83C972.718 1020.52 975.981 1017.16 979.853 1014.75C983.749 1012.34 988.01 1011.13 992.636 1011.13C996.069 1011.13 998.821 1011.74 1000.89 1012.96C1002.96 1014.15 1004.53 1015.64 1005.6 1017.41C1006.7 1019.19 1007.49 1020.92 1007.98 1022.6H1008.63L1010.39 1011.9H1016.74L1007.25 1069.46C1006.44 1074.21 1004.79 1078.12 1002.28 1081.19C999.77 1084.25 996.654 1086.52 992.928 1087.98C989.227 1089.46 985.161 1090.21 980.729 1090.21ZM984.674 1061.46C988.278 1061.46 991.516 1060.6 994.389 1058.87C997.287 1057.12 999.71 1054.62 1001.66 1051.38C1003.63 1048.12 1004.98 1044.22 1005.71 1039.69C1006.44 1035.31 1006.41 1031.43 1005.6 1028.04C1004.82 1024.63 1003.3 1021.96 1001.04 1020.01C998.796 1018.04 995.85 1017.05 992.198 1017.05C988.424 1017.05 985.088 1018.06 982.19 1020.08C979.317 1022.1 976.943 1024.83 975.068 1028.26C973.218 1031.67 971.939 1035.48 971.233 1039.69C970.551 1043.98 970.576 1047.77 971.306 1051.05C972.061 1054.32 973.546 1056.87 975.762 1058.72C977.978 1060.55 980.948 1061.46 984.674 1061.46ZM1067.88 1068L1059.81 993.199H1066.75L1073 1057.52H1073.58L1101.23 993.199H1109.12L1115.4 1057.52H1115.99L1143.6 993.199H1150.61L1117.7 1068H1110.36L1103.57 1004.56H1103.09L1075.19 1068H1067.88ZM1165.99 1069.17C1161.07 1069.17 1156.93 1067.93 1153.57 1065.44C1150.21 1062.94 1147.83 1059.47 1146.45 1055.03C1145.06 1050.6 1144.83 1045.49 1145.75 1039.69C1146.68 1034.05 1148.52 1029.08 1151.27 1024.79C1154.04 1020.48 1157.45 1017.13 1161.49 1014.75C1165.54 1012.34 1169.93 1011.13 1174.68 1011.13C1179.62 1011.13 1183.76 1012.39 1187.1 1014.89C1190.46 1017.4 1192.83 1020.87 1194.22 1025.3C1195.63 1029.74 1195.88 1034.86 1194.95 1040.68C1194.03 1046.3 1192.17 1051.26 1189.4 1055.55C1186.62 1059.81 1183.21 1063.14 1179.17 1065.55C1175.15 1067.96 1170.76 1069.17 1165.99 1069.17ZM1166.06 1063.22C1170.05 1063.22 1173.61 1062.16 1176.73 1060.04C1179.87 1057.9 1182.46 1055.05 1184.5 1051.49C1186.55 1047.91 1187.93 1043.98 1188.63 1039.69C1189.29 1035.6 1189.22 1031.84 1188.41 1028.41C1187.61 1024.97 1186.06 1022.22 1183.77 1020.15C1181.49 1018.08 1178.44 1017.05 1174.64 1017.05C1170.67 1017.05 1167.12 1018.13 1163.98 1020.3C1160.84 1022.44 1158.24 1025.32 1156.2 1028.92C1154.15 1032.5 1152.79 1036.42 1152.11 1040.68C1151.43 1044.8 1151.48 1048.56 1152.25 1051.97C1153.06 1055.37 1154.6 1058.1 1156.89 1060.15C1159.21 1062.19 1162.26 1063.22 1166.06 1063.22ZM1204.69 1068L1214.04 1011.9H1220.36L1218.9 1020.52H1219.38C1220.93 1017.69 1223.26 1015.42 1226.35 1013.69C1229.47 1011.94 1232.79 1011.06 1236.32 1011.06C1236.86 1011.06 1237.46 1011.07 1238.11 1011.1C1238.77 1011.1 1239.32 1011.12 1239.76 1011.17L1238.62 1017.78C1238.33 1017.73 1237.82 1017.66 1237.09 1017.56C1236.38 1017.46 1235.59 1017.41 1234.72 1017.41C1231.79 1017.41 1229.09 1018.04 1226.61 1019.28C1224.15 1020.49 1222.08 1022.19 1220.4 1024.35C1218.74 1026.52 1217.67 1028.99 1217.18 1031.77L1211.19 1068H1204.69ZM1260.37 993.199L1247.96 1068H1241.45L1253.87 993.199H1260.37ZM1285.25 1069.17C1280.64 1069.17 1276.81 1067.95 1273.74 1065.52C1270.67 1063.08 1268.53 1059.68 1267.31 1055.33C1266.1 1050.97 1265.96 1045.89 1266.91 1040.1C1267.89 1034.33 1269.7 1029.27 1272.35 1024.94C1275.03 1020.58 1278.31 1017.2 1282.18 1014.78C1286.07 1012.35 1290.32 1011.13 1294.93 1011.13C1298.36 1011.13 1301.1 1011.74 1303.14 1012.96C1305.21 1014.15 1306.78 1015.64 1307.85 1017.41C1308.93 1019.19 1309.69 1020.92 1310.16 1022.6H1310.74L1315.63 993.199H1322.17L1309.75 1068H1303.44L1305.19 1057.59H1304.39C1303.34 1059.3 1301.96 1061.05 1300.26 1062.85C1298.58 1064.63 1296.51 1066.13 1294.05 1067.34C1291.59 1068.56 1288.66 1069.17 1285.25 1069.17ZM1286.67 1063.22C1290.3 1063.22 1293.57 1062.23 1296.5 1060.26C1299.44 1058.26 1301.9 1055.52 1303.87 1052.04C1305.87 1048.53 1307.23 1044.52 1307.96 1039.99C1308.72 1035.51 1308.71 1031.55 1307.93 1028.12C1307.15 1024.66 1305.64 1021.96 1303.4 1020.01C1301.16 1018.04 1298.2 1017.05 1294.52 1017.05C1290.8 1017.05 1287.49 1018.07 1284.59 1020.12C1281.69 1022.14 1279.29 1024.88 1277.39 1028.34C1275.52 1031.79 1274.22 1035.68 1273.49 1039.99C1272.78 1044.34 1272.78 1048.28 1273.49 1051.78C1274.19 1055.29 1275.63 1058.08 1277.8 1060.15C1279.99 1062.19 1282.95 1063.22 1286.67 1063.22ZM1425.53 1016.57H1418.74C1418.67 1014.02 1418.16 1011.66 1417.21 1009.49C1416.26 1007.3 1414.93 1005.39 1413.23 1003.75C1411.52 1002.12 1409.49 1000.86 1407.13 999.956C1404.79 999.055 1402.17 998.605 1399.27 998.605C1394.5 998.605 1389.94 999.859 1385.58 1002.37C1381.22 1004.85 1377.47 1008.5 1374.33 1013.32C1371.19 1018.15 1369.04 1024.04 1367.9 1031C1366.76 1037.87 1366.94 1043.65 1368.45 1048.35C1369.96 1053.03 1372.43 1056.57 1375.86 1058.98C1379.32 1061.39 1383.37 1062.59 1388.02 1062.59C1391 1062.59 1393.84 1062.14 1396.57 1061.24C1399.3 1060.34 1401.81 1059.09 1404.09 1057.48C1406.38 1055.85 1408.39 1053.94 1410.12 1051.75C1411.85 1049.56 1413.19 1047.18 1414.14 1044.62H1421.01C1419.81 1048.06 1418.14 1051.26 1416 1054.23C1413.86 1057.18 1411.33 1059.76 1408.4 1061.97C1405.51 1064.19 1402.31 1065.92 1398.8 1067.16C1395.32 1068.4 1391.62 1069.02 1387.7 1069.02C1381.32 1069.02 1375.92 1067.43 1371.52 1064.24C1367.13 1061.05 1364.02 1056.56 1362.17 1050.76C1360.34 1044.94 1360.08 1038.09 1361.4 1030.2C1362.69 1022.45 1365.16 1015.73 1368.81 1010.04C1372.49 1004.34 1376.99 999.944 1382.33 996.852C1387.66 993.735 1393.45 992.177 1399.71 992.177C1403.71 992.177 1407.28 992.797 1410.45 994.039C1413.62 995.257 1416.31 996.986 1418.52 999.226C1420.76 1001.44 1422.48 1004.02 1423.67 1006.97C1424.86 1009.91 1425.49 1013.12 1425.53 1016.57ZM1444.1 1032.94L1438.29 1068H1431.79L1444.21 993.199H1450.71L1446.18 1020.7H1446.76C1448.52 1017.78 1450.93 1015.47 1454 1013.76C1457.06 1012.03 1460.73 1011.17 1464.99 1011.17C1468.76 1011.17 1471.95 1011.95 1474.56 1013.51C1477.19 1015.06 1479.05 1017.37 1480.15 1020.41C1481.27 1023.45 1481.46 1027.2 1480.73 1031.66L1474.63 1068H1468.09L1474.08 1032.06C1474.84 1027.43 1474.16 1023.79 1472.04 1021.14C1469.94 1018.46 1466.73 1017.12 1462.4 1017.12C1459.43 1017.12 1456.65 1017.76 1454.07 1019.02C1451.51 1020.29 1449.34 1022.11 1447.57 1024.5C1445.81 1026.86 1444.66 1029.67 1444.1 1032.94ZM1514.29 1069.17C1509.05 1069.17 1504.73 1067.95 1501.32 1065.52C1497.91 1063.06 1495.53 1059.66 1494.16 1055.33C1492.8 1050.97 1492.59 1045.95 1493.54 1040.28C1494.49 1034.63 1496.37 1029.61 1499.17 1025.23C1501.97 1020.82 1505.42 1017.38 1509.54 1014.89C1513.65 1012.39 1518.12 1011.13 1522.94 1011.13C1525.99 1011.13 1528.84 1011.69 1531.49 1012.81C1534.14 1013.91 1536.4 1015.6 1538.25 1017.89C1540.12 1020.15 1541.42 1023.01 1542.15 1026.47C1542.89 1029.91 1542.86 1033.97 1542.08 1038.67L1541.57 1041.89H1497.74L1498.66 1036.15H1535.87C1536.48 1032.55 1536.31 1029.31 1535.36 1026.44C1534.41 1023.56 1532.79 1021.29 1530.5 1019.61C1528.24 1017.9 1525.43 1017.05 1522.07 1017.05C1518.63 1017.05 1515.38 1018.01 1512.32 1019.93C1509.27 1021.86 1506.69 1024.37 1504.57 1027.46C1502.48 1030.53 1501.13 1033.8 1500.52 1037.28L1499.79 1041.59C1499.01 1046.34 1499.11 1050.32 1500.08 1053.54C1501.05 1056.73 1502.82 1059.14 1505.38 1060.77C1507.93 1062.4 1511.21 1063.22 1515.2 1063.22C1517.88 1063.22 1520.3 1062.8 1522.47 1061.97C1524.64 1061.15 1526.52 1060.04 1528.13 1058.65C1529.74 1057.24 1531.03 1055.69 1532 1054.01L1537.81 1056.02C1536.57 1058.38 1534.81 1060.56 1532.55 1062.56C1530.31 1064.55 1527.64 1066.16 1524.55 1067.38C1521.48 1068.57 1518.06 1069.17 1514.29 1069.17ZM1551.51 1068L1560.86 1011.9H1567.18L1565.72 1020.52H1566.31C1567.94 1017.62 1570.2 1015.34 1573.1 1013.69C1576 1012.01 1579.28 1011.17 1582.96 1011.17C1586.81 1011.17 1589.83 1012.08 1592.02 1013.91C1594.21 1015.71 1595.67 1018.19 1596.4 1021.36H1596.88C1598.63 1018.24 1601.1 1015.77 1604.29 1013.94C1607.48 1012.09 1611.12 1011.17 1615.21 1011.17C1620.4 1011.17 1624.23 1012.81 1626.72 1016.1C1629.2 1019.39 1629.92 1024.16 1628.87 1030.42L1622.59 1068H1616.09L1622.37 1030.42C1623.08 1025.99 1622.5 1022.66 1620.65 1020.45C1618.8 1018.23 1616.03 1017.12 1612.33 1017.12C1608.04 1017.12 1604.5 1018.44 1601.7 1021.07C1598.92 1023.67 1597.21 1027.01 1596.55 1031.07L1590.38 1068H1583.73L1590.12 1029.83C1590.73 1026.03 1590.18 1022.97 1588.48 1020.63C1586.8 1018.29 1584.03 1017.12 1580.19 1017.12C1577.58 1017.12 1575.13 1017.77 1572.84 1019.06C1570.58 1020.32 1568.66 1022.09 1567.07 1024.35C1565.52 1026.59 1564.49 1029.16 1564.01 1032.06L1558.02 1068H1551.51ZM1639.87 1068L1649.22 1011.9H1655.76L1646.41 1068H1639.87ZM1654.85 1002.15C1653.49 1002.15 1652.33 1001.68 1651.38 1000.76C1650.45 999.834 1650 998.714 1650.03 997.399C1650.08 996.158 1650.58 995.086 1651.53 994.185C1652.5 993.26 1653.64 992.797 1654.96 992.797C1656.32 992.797 1657.48 993.272 1658.43 994.222C1659.38 995.147 1659.83 996.267 1659.78 997.582C1659.76 998.824 1659.26 999.895 1658.28 1000.8C1657.31 1001.7 1656.16 1002.15 1654.85 1002.15ZM1685.37 1069.17C1680.31 1069.17 1676.13 1067.91 1672.85 1065.41C1669.56 1062.9 1667.26 1059.47 1665.94 1055.11C1664.65 1050.72 1664.47 1045.76 1665.4 1040.21C1666.32 1034.56 1668.18 1029.55 1670.98 1025.19C1673.78 1020.81 1677.24 1017.38 1681.36 1014.89C1685.5 1012.39 1690.01 1011.13 1694.91 1011.13C1698.68 1011.13 1701.97 1011.86 1704.77 1013.32C1707.57 1014.76 1709.74 1016.79 1711.27 1019.42C1712.8 1022.03 1713.53 1025.07 1713.46 1028.55H1706.89C1706.72 1025.32 1705.54 1022.59 1703.34 1020.37C1701.18 1018.16 1698.11 1017.05 1694.14 1017.05C1690.51 1017.05 1687.15 1018.02 1684.06 1019.97C1680.97 1021.89 1678.35 1024.59 1676.21 1028.04C1674.09 1031.48 1672.66 1035.46 1671.93 1039.99C1671.15 1044.54 1671.23 1048.57 1672.15 1052.08C1673.08 1055.56 1674.73 1058.28 1677.12 1060.26C1679.53 1062.23 1682.57 1063.22 1686.25 1063.22C1688.76 1063.22 1691.12 1062.75 1693.34 1061.83C1695.55 1060.88 1697.51 1059.54 1699.22 1057.81C1700.92 1056.06 1702.22 1054 1703.12 1051.64H1709.7C1708.6 1055.05 1706.87 1058.07 1704.51 1060.7C1702.17 1063.32 1699.37 1065.39 1696.11 1066.9C1692.85 1068.41 1689.27 1069.17 1685.37 1069.17ZM1736.38 1069.28C1732.99 1069.28 1730.01 1068.62 1727.43 1067.31C1724.85 1065.97 1722.93 1064.04 1721.66 1061.54C1720.42 1059 1720.08 1055.93 1720.64 1052.33C1721.12 1049.56 1722.05 1047.22 1723.41 1045.32C1724.8 1043.42 1726.55 1041.86 1728.67 1040.64C1730.79 1039.4 1733.23 1038.43 1735.98 1037.72C1738.73 1037.02 1741.72 1036.48 1744.96 1036.11C1748.13 1035.73 1750.83 1035.38 1753.07 1035.09C1755.31 1034.8 1757.05 1034.34 1758.29 1033.7C1759.54 1033.07 1760.28 1032.05 1760.52 1030.64L1760.74 1029.32C1761.37 1025.5 1760.79 1022.49 1758.99 1020.3C1757.19 1018.08 1754.17 1016.98 1749.93 1016.98C1745.89 1016.98 1742.38 1017.88 1739.41 1019.68C1736.46 1021.46 1734.27 1023.54 1732.84 1025.92L1727.07 1023.7C1728.82 1020.63 1730.97 1018.18 1733.53 1016.36C1736.09 1014.5 1738.83 1013.18 1741.75 1012.37C1744.67 1011.55 1747.56 1011.13 1750.4 1011.13C1752.55 1011.13 1754.73 1011.41 1756.94 1011.97C1759.16 1012.53 1761.14 1013.51 1762.9 1014.89C1764.67 1016.26 1765.98 1018.17 1766.8 1020.63C1767.66 1023.06 1767.78 1026.16 1767.17 1029.91L1760.81 1068H1754.31L1755.81 1059.12H1755.41C1754.39 1060.78 1752.97 1062.39 1751.17 1063.95C1749.39 1065.5 1747.26 1066.78 1744.78 1067.78C1742.3 1068.78 1739.5 1069.28 1736.38 1069.28ZM1738.02 1063.32C1741.48 1063.32 1744.61 1062.56 1747.41 1061.02C1750.23 1059.49 1752.55 1057.46 1754.35 1054.92C1756.18 1052.37 1757.34 1049.56 1757.86 1046.49L1759.21 1038.38C1758.67 1038.84 1757.79 1039.26 1756.58 1039.62C1755.38 1039.99 1754.03 1040.31 1752.52 1040.61C1751.04 1040.87 1749.54 1041.11 1748.03 1041.3C1746.55 1041.5 1745.23 1041.67 1744.09 1041.81C1740.85 1042.2 1738.02 1042.81 1735.61 1043.64C1733.23 1044.47 1731.31 1045.61 1729.88 1047.07C1728.44 1048.51 1727.54 1050.36 1727.18 1052.62C1726.62 1056.03 1727.36 1058.67 1729.4 1060.55C1731.47 1062.4 1734.35 1063.32 1738.02 1063.32ZM1797.03 993.199L1784.61 1068H1778.11L1790.53 993.199H1797.03ZM1820.73 993.199L1808.31 1068H1801.81L1814.23 993.199H1820.73ZM1826.61 1089.04C1825.32 1089.04 1824.13 1088.92 1823.03 1088.67C1821.96 1088.43 1821.12 1088.16 1820.51 1087.87L1823.25 1082.13C1825.3 1082.84 1827.17 1083.06 1828.88 1082.79C1830.6 1082.55 1832.25 1081.72 1833.81 1080.31C1835.36 1078.9 1836.9 1076.79 1838.41 1073.99L1841.48 1068.29L1830.37 1011.9H1837.13L1845.9 1059.53H1846.37L1870.95 1011.9H1878.29L1843.78 1076.8C1842.29 1079.6 1840.65 1081.9 1838.85 1083.71C1837.07 1085.51 1835.15 1086.85 1833.08 1087.72C1831.03 1088.6 1828.88 1089.04 1826.61 1089.04Z" fill="#085EAB"/>
</svg>
