<?xml version="1.0" encoding="UTF-8"?>
<svg version="1.1" xmlns="http://www.w3.org/2000/svg" width="128" height="128">
<path d="M0 0 C2.69246306 2.62342554 3.81498784 4.44496353 5 8 C5.33 5.36 5.66 2.72 6 0 C8.56428515 -0.13559675 11.12135216 -0.23433188 13.6875 -0.3125 C14.40873047 -0.35439453 15.12996094 -0.39628906 15.87304688 -0.43945312 C19.87024701 -0.5307134 21.55130903 -0.32274263 24.89453125 2.08203125 C28.95660494 7.71165842 29.3295135 13.73163705 29.625 20.4375 C29.74875 22.933125 29.8725 25.42875 30 28 C31.32 18.76 32.64 9.52 34 0 C37.96 0 41.92 0 46 0 C46.99943482 7.35032671 47.99628583 14.70099739 48.99072266 22.05200195 C49.3295266 24.5537264 49.66904184 27.05535461 50.00927734 29.55688477 C50.49763128 33.14835065 50.98344303 36.74015253 51.46875 40.33203125 C51.62186646 41.45398392 51.77498291 42.57593658 51.93273926 43.73188782 C52.07288452 44.77274033 52.21302979 45.81359283 52.35742188 46.88598633 C52.48177612 47.80309891 52.60613037 48.72021149 52.73425293 49.66511536 C53 52 53 52 53 55 C50.03 55 47.06 55 44 55 C44 52.03 44 49.06 44 46 C41.36 46 38.72 46 36 46 C36.020625 47.299375 36.04125 48.59875 36.0625 49.9375 C36.08399454 51.29165633 36.07148199 52.64756083 36 54 C35 55 35 55 33.15234375 55.09765625 C31.1015625 55.06510417 29.05078125 55.03255208 27 55 C26.67 54.01 26.34 53.02 26 52 C25.5877417 52.48895752 25.1754834 52.97791504 24.75073242 53.48168945 C22.62846375 55.32221224 21.75064629 55.35527774 18.98828125 55.29296875 C18.23095703 55.28330078 17.47363281 55.27363281 16.69335938 55.26367188 C15.90767578 55.23853516 15.12199219 55.21339844 14.3125 55.1875 C13.11657227 55.16719727 13.11657227 55.16719727 11.89648438 55.14648438 C9.93070033 55.11117089 7.96526418 55.05736447 6 55 C5.505 51.04 5.505 51.04 5 47 C4.62875 47.928125 4.2575 48.85625 3.875 49.8125 C1.60561437 53.67045556 0.23934045 54.64021155 -4 56 C-8.30402938 56.27366661 -11.0833277 55.79605752 -14.375 52.9375 C-18.74976949 45.02926285 -18.24578714 36.79887851 -18.125 28 C-18.11597656 26.74832031 -18.10695313 25.49664062 -18.09765625 24.20703125 C-18.07422716 21.1378199 -18.04142147 18.06901244 -18 15 C-19.32 15 -20.64 15 -22 15 C-22 28.2 -22 41.4 -22 55 C-24.64 55 -27.28 55 -30 55 C-31 54 -31 54 -31.11352539 50.39819336 C-31.11336625 48.79540144 -31.10767063 47.1926044 -31.09765625 45.58984375 C-31.0962413 44.74780899 -31.09482635 43.90577423 -31.09336853 43.03822327 C-31.08775263 40.33794665 -31.07519748 37.63775172 -31.0625 34.9375 C-31.05748705 33.11132932 -31.05292379 31.28515734 -31.04882812 29.45898438 C-31.03777804 24.97262458 -31.02050279 20.48632616 -31 16 C-32.98 15.34 -34.96 14.68 -37 14 C-37 9.38 -37 4.76 -37 0 C-30.07 0 -23.14 0 -16 0 C-15.67 0.99 -15.34 1.98 -15 3 C-14.401875 2.525625 -13.80375 2.05125 -13.1875 1.5625 C-8.96799425 -1.45143268 -4.85999833 -1.45016079 0 0 Z M-9 15 C-9 23.25 -9 31.5 -9 40 C-7.02 40 -5.04 40 -3 40 C-3 31.75 -3 23.5 -3 15 C-6.74691447 13.60229416 -6.74691447 13.60229416 -9 15 Z M14 15 C14 23.25 14 31.5 14 40 C15.98 40 17.96 40 20 40 C20.94969869 37.15090394 21.12869462 35.35751252 21.1328125 32.40234375 C21.13410156 31.51869141 21.13539062 30.63503906 21.13671875 29.72460938 C21.13285156 28.80486328 21.12898438 27.88511719 21.125 26.9375 C21.13080078 25.55208008 21.13080078 25.55208008 21.13671875 24.13867188 C21.13478516 22.81512695 21.13478516 22.81512695 21.1328125 21.46484375 C21.13168457 20.656521 21.13055664 19.84819824 21.12939453 19.01538086 C21.12664883 16.92914156 21.12664883 16.92914156 20 15 C18.02 15 16.04 15 14 15 Z M39 22 C38.67 25.63 38.34 29.26 38 33 C39.32 33 40.64 33 42 33 C41.8864371 31.35333797 41.75882619 29.70763918 41.625 28.0625 C41.55539063 27.14597656 41.48578125 26.22945312 41.4140625 25.28515625 C41.27742188 24.53105469 41.14078125 23.77695313 41 23 C40.34 22.67 39.68 22.34 39 22 Z M27 48 C28 50 28 50 28 50 Z " fill="#BB2330" transform="translate(46,50)"/>
<path d="M0 0 C0.33 0.66 0.66 1.32 1 2 C1.33 1.34 1.66 0.68 2 0 C3.98 0 5.96 0 8 0 C8 4.29 8 8.58 8 13 C8.99 13 9.98 13 11 13 C11 8.71 11 4.42 11 0 C20.24 0 29.48 0 39 0 C39.66 2.97 40.32 5.94 41 9 C41.144375 7.700625 41.28875 6.40125 41.4375 5.0625 C41.875 1.125 41.875 1.125 43 0 C45.35313555 -0.07271741 47.70833668 -0.08370868 50.0625 -0.0625 C51.99802734 -0.04896484 51.99802734 -0.04896484 53.97265625 -0.03515625 C54.97167969 -0.02355469 55.97070312 -0.01195312 57 0 C57.495 1.485 57.495 1.485 58 3 C58.515625 2.319375 59.03125 1.63875 59.5625 0.9375 C62 -1 62 -1 65.5625 -1.0625 C69 0 69 0 70.9375 1.9375 C72.45328588 6.3065299 72.24005556 10.42116246 72 15 C70.02 15 68.04 15 66 15 C66 13.35 66 11.7 66 10 C65.01 10 64.02 10 63 10 C63 15.28 63 20.56 63 26 C63.99 26 64.98 26 66 26 C66 24.35 66 22.7 66 21 C67.65 21 69.3 21 71 21 C71.08564209 20.39937744 71.17128418 19.79875488 71.25952148 19.17993164 C71.64788015 16.47348342 72.04260329 13.76800164 72.4375 11.0625 C72.63956055 9.64420898 72.63956055 9.64420898 72.84570312 8.19726562 C73.04389648 6.84858398 73.04389648 6.84858398 73.24609375 5.47265625 C73.36654053 4.64000244 73.4869873 3.80734863 73.61108398 2.94946289 C74 1 74 1 75 0 C77.67058851 -0.14115161 80.32432238 -0.04247107 83 0 C83.99 7.425 83.99 7.425 85 15 C85.33 10.05 85.66 5.1 86 0 C87.98 0 89.96 0 92 0 C92 8.58 92 17.16 92 26 C93.98 26 95.96 26 98 26 C98.02688151 27.64574566 98.04634123 29.29161413 98.0625 30.9375 C98.07410156 31.85402344 98.08570312 32.77054688 98.09765625 33.71484375 C98 36 98 36 97 37 C94.68925832 37.09932392 92.37537058 37.12969618 90.0625 37.125 C88.16177734 37.12886719 88.16177734 37.12886719 86.22265625 37.1328125 C83 37 83 37 81 36 C81 34.35 81 32.7 81 31 C79.04105639 31.11306697 79.04105639 31.11306697 77 32 C75.70339566 34.49034386 75.70339566 34.49034386 75 37 C72.66666667 37 70.33333333 37 68 37 C66.865625 37.061875 65.73125 37.12375 64.5625 37.1875 C61 37 61 37 59.0625 35.5 C58.711875 35.005 58.36125 34.51 58 34 C57.34 34.99 56.68 35.98 56 37 C53.6875 37.36328125 53.6875 37.36328125 51 37.3125 C50.113125 37.30863281 49.22625 37.30476563 48.3125 37.30078125 C46 37 46 37 44 35 C43.67 35.33 43.34 35.66 43 36 C41.33382885 36.04063832 39.66611905 36.042721 38 36 C37.505 34.02 37.505 34.02 37 32 C36.34 33.65 35.68 35.3 35 37 C31.18751574 37.02887236 27.3750593 37.04675492 23.5625 37.0625 C22.47388672 37.07087891 21.38527344 37.07925781 20.26367188 37.08789062 C19.22919922 37.09111328 18.19472656 37.09433594 17.12890625 37.09765625 C16.17056885 37.10289307 15.21223145 37.10812988 14.22485352 37.11352539 C12 37 12 37 11 36 C10.92741054 33.81360547 10.91626217 31.62499611 10.9375 29.4375 C10.94652344 28.23996094 10.95554687 27.04242188 10.96484375 25.80859375 C10.97644531 24.88175781 10.98804687 23.95492188 11 23 C10.01 23 9.02 23 8 23 C8 27.29 8 31.58 8 36 C5.525 36.495 5.525 36.495 3 37 C2.34 36.01 1.68 35.02 1 34 C0.649375 34.495 0.29875 34.99 -0.0625 35.5 C-3.02552179 37.79395236 -5.37042697 37.38888282 -9 37 C-11.61593153 35.16884793 -11.96989455 34.09031634 -13 31 C-13.26005601 26.90017758 -13.23142595 22.79468599 -13.25 18.6875 C-13.270625 17.55892578 -13.29125 16.43035156 -13.3125 15.26757812 C-13.36289448 4.56505068 -13.36289448 4.56505068 -10 0 C-6.26840331 -1.24386556 -3.81984796 -0.77811718 0 0 Z M-7 10 C-7 15.28 -7 20.56 -7 26 C-6.01 26 -5.02 26 -4 26 C-4 24.35 -4 22.7 -4 21 C-1.03 21.495 -1.03 21.495 2 22 C2 19.36 2 16.72 2 14 C0.02 14.33 -1.96 14.66 -4 15 C-4 13.35 -4 11.7 -4 10 C-4.99 10 -5.98 10 -7 10 Z M23 10 C23 11.32 23 12.64 23 14 C25.31 14 27.62 14 30 14 C30 12.68 30 11.36 30 10 C27.69 10 25.38 10 23 10 Z M78 16 C78 17.98 78 19.96 78 22 C78.33 22 78.66 22 79 22 C79 20.02 79 18.04 79 16 C78.67 16 78.34 16 78 16 Z M23 23 C23.33 24.32 23.66 25.64 24 27 C25.98 27 27.96 27 30 27 C30 25.35 30 23.7 30 22 C27.66140564 22 25.29969577 22.60856242 23 23 Z " fill="#6C7171" transform="translate(21,7)"/>
<path d="M0 0 C2.97 0 5.94 0 9 0 C9.99 4.29 10.98 8.58 12 13 C12.33 13 12.66 13 13 13 C13.99 8.71 14.98 4.42 16 0 C18.97 0 21.94 0 25 0 C24.47348852 5.57444031 23.33428184 10.6847232 21.82861328 16.07226562 C18.21042084 29.12931365 17.02521623 41.48410182 17 55 C14.03 55 11.06 55 8 55 C8.00902344 53.66453125 8.01804687 52.3290625 8.02734375 50.953125 C7.8698827 35.47595806 4.86337009 21.5109376 0.62670898 6.65942383 C0 4 0 4 0 0 Z " fill="#BB2331" transform="translate(95,50)"/>
<path d="M0 0 C1.05767578 0.49113281 1.05767578 0.49113281 2.13671875 0.9921875 C5.23867167 2.08400722 7.54006053 2.20385396 10.8125 2.125 C11.78832031 2.10695313 12.76414062 2.08890625 13.76953125 2.0703125 C14.50558594 2.04710938 15.24164063 2.02390625 16 2 C16.33 1.34 16.66 0.68 17 0 C22.75 1.875 22.75 1.875 25 3 C25.33 2.01 25.66 1.02 26 0 C27.65 0 29.3 0 31 0 C31 0.66 31 1.32 31 2 C31.99 2 32.98 2 34 2 C34.33 1.34 34.66 0.68 35 0 C36.66666667 0 38.33333333 0 40 0 C40 2.97 40 5.94 40 9 C35.58300512 10.10424872 31.52642225 10.15088074 27 10 C26.67 9.67 26.34 9.34 26 9 C25.67 9.99 25.34 10.98 25 12 C24.01 12 23.02 12 22 12 C22 11.01 22 10.02 22 9 C21.01 9.495 21.01 9.495 20 10 C16.67261656 10.26395109 13.33669992 10.23146278 10 10.25 C9.071875 10.270625 8.14375 10.29125 7.1875 10.3125 C5.8571875 10.32023437 5.8571875 10.32023437 4.5 10.328125 C3.6853125 10.3374707 2.870625 10.34681641 2.03125 10.35644531 C1.3609375 10.23881836 0.690625 10.12119141 0 10 C-2 7 -2 7 -1.6875 3.875 C-1 1 -1 1 0 0 Z M1 4 C2 6 2 6 2 6 Z " fill="#404141" transform="translate(31,110)"/>
<path d="M0 0 C1.32 0 2.64 0 4 0 C4.66 0.66 5.32 1.32 6 2 C8.01471498 1.77614278 10.03145256 1.54581684 12.02734375 1.19140625 C14 1 14 1 17 2 C19.16715557 1.12516085 19.16715557 1.12516085 21 0 C22.32 0.99 23.64 1.98 25 3 C24.67 5.64 24.34 8.28 24 11 C21 11 21 11 17.625 10.5 C11.77381618 9.72203361 5.89003479 9.9191916 0 10 C-1.36952673 7.26094655 -1.12621361 5.02912668 -1 2 C-0.67 1.34 -0.34 0.68 0 0 Z M1 4 C2 6 2 6 2 6 Z " fill="#3F4141" transform="translate(73,110)"/>
</svg>
