<svg width="133" height="17" viewBox="0 0 133 17" fill="none" xmlns="http://www.w3.org/2000/svg">
<path d="M3.53693 1.45455L7.32244 12.9034H7.47159L11.25 1.45455H14.1477L9.01989 16H5.76705L0.646307 1.45455H3.53693ZM15.9499 16V5.09091H18.521V16H15.9499ZM17.2425 3.54261C16.8353 3.54261 16.485 3.40767 16.1914 3.13778C15.8978 2.86316 15.7511 2.53409 15.7511 2.15057C15.7511 1.76231 15.8978 1.43324 16.1914 1.16335C16.485 0.88873 16.8353 0.75142 17.2425 0.75142C17.6545 0.75142 18.0049 0.88873 18.2937 1.16335C18.5872 1.43324 18.734 1.76231 18.734 2.15057C18.734 2.53409 18.5872 2.86316 18.2937 3.13778C18.0049 3.40767 17.6545 3.54261 17.2425 3.54261ZM25.9943 16.2131C24.9006 16.2131 23.956 15.9858 23.1605 15.5312C22.3698 15.072 21.7614 14.4233 21.3352 13.5852C20.9091 12.7424 20.696 11.7505 20.696 10.6094C20.696 9.48722 20.9091 8.50237 21.3352 7.65483C21.7661 6.80256 22.3674 6.13968 23.1392 5.66619C23.911 5.18797 24.8177 4.94886 25.8594 4.94886C26.5317 4.94886 27.1662 5.05777 27.7628 5.27557C28.3641 5.48864 28.8944 5.82008 29.3537 6.26989C29.8177 6.7197 30.1823 7.29261 30.4474 7.98864C30.7126 8.67992 30.8452 9.50379 30.8452 10.4602V11.2486H21.9034V9.51562H28.3807C28.3759 9.0232 28.2694 8.58523 28.0611 8.2017C27.8527 7.81345 27.5616 7.50805 27.1875 7.28551C26.8182 7.06297 26.3873 6.9517 25.8949 6.9517C25.3693 6.9517 24.9077 7.07955 24.5099 7.33523C24.1122 7.58617 23.8021 7.91761 23.5795 8.32955C23.3617 8.73674 23.2505 9.18419 23.2457 9.67188V11.1847C23.2457 11.8191 23.3617 12.3636 23.5938 12.8182C23.8258 13.268 24.1501 13.6136 24.5668 13.8551C24.9834 14.0919 25.4711 14.2102 26.0298 14.2102C26.4039 14.2102 26.7424 14.1581 27.0455 14.054C27.3485 13.9451 27.6113 13.7865 27.8338 13.5781C28.0563 13.3698 28.2244 13.1117 28.3381 12.804L30.7386 13.0739C30.5871 13.7083 30.2983 14.2623 29.8722 14.7358C29.4508 15.2045 28.911 15.5691 28.2528 15.8295C27.5947 16.0852 26.8419 16.2131 25.9943 16.2131ZM35.2131 16L32.1307 5.09091H34.7514L36.669 12.7614H36.7685L38.7287 5.09091H41.321L43.2812 12.7188H43.3878L45.277 5.09091H47.9048L44.8153 16H42.1378L40.0923 8.62784H39.9432L37.8977 16H35.2131ZM54.7745 1.45455H57.9989L62.3171 11.9943H62.4876L66.8058 1.45455H70.0302V16H67.5018V6.0071H67.3668L63.3469 15.9574H61.4577L57.4379 5.9858H57.3029V16H54.7745V1.45455ZM77.5444 16.2131C76.479 16.2131 75.5558 15.9787 74.7745 15.5099C73.9933 15.0412 73.3872 14.3854 72.9563 13.5426C72.5302 12.6998 72.3171 11.715 72.3171 10.5881C72.3171 9.46117 72.5302 8.47396 72.9563 7.62642C73.3872 6.77888 73.9933 6.12074 74.7745 5.65199C75.5558 5.18324 76.479 4.94886 77.5444 4.94886C78.6097 4.94886 79.533 5.18324 80.3143 5.65199C81.0955 6.12074 81.6992 6.77888 82.1254 7.62642C82.5562 8.47396 82.7717 9.46117 82.7717 10.5881C82.7717 11.715 82.5562 12.6998 82.1254 13.5426C81.6992 14.3854 81.0955 15.0412 80.3143 15.5099C79.533 15.9787 78.6097 16.2131 77.5444 16.2131ZM77.5586 14.1534C78.1362 14.1534 78.6192 13.9948 79.0075 13.6776C79.3957 13.3556 79.6845 12.9247 79.8739 12.3849C80.0681 11.8452 80.1651 11.2438 80.1651 10.581C80.1651 9.91335 80.0681 9.30966 79.8739 8.76989C79.6845 8.22538 79.3957 7.79214 79.0075 7.47017C78.6192 7.1482 78.1362 6.98722 77.5586 6.98722C76.9667 6.98722 76.4743 7.1482 76.0813 7.47017C75.6931 7.79214 75.4019 8.22538 75.2077 8.76989C75.0183 9.30966 74.9237 9.91335 74.9237 10.581C74.9237 11.2438 75.0183 11.8452 75.2077 12.3849C75.4019 12.9247 75.6931 13.3556 76.0813 13.6776C76.4743 13.9948 76.9667 14.1534 77.5586 14.1534ZM84.9538 16V5.09091H87.4467V6.90909H87.5604C87.7592 6.27936 88.1001 5.79403 88.5831 5.45312C89.0708 5.10748 89.6271 4.93466 90.2521 4.93466C90.3942 4.93466 90.5528 4.94176 90.728 4.95597C90.9079 4.96544 91.0571 4.98201 91.1754 5.00568V7.37074C91.0665 7.33286 90.8937 7.29972 90.657 7.27131C90.425 7.23816 90.2 7.22159 89.9822 7.22159C89.5135 7.22159 89.0921 7.32339 88.718 7.52699C88.3487 7.72585 88.0575 8.00284 87.8445 8.35795C87.6314 8.71307 87.5249 9.12263 87.5249 9.58665V16H84.9538ZM97.2638 16.2131C96.1701 16.2131 95.2255 15.9858 94.43 15.5312C93.6393 15.072 93.0309 14.4233 92.6048 13.5852C92.1786 12.7424 91.9656 11.7505 91.9656 10.6094C91.9656 9.48722 92.1786 8.50237 92.6048 7.65483C93.0356 6.80256 93.637 6.13968 94.4087 5.66619C95.1805 5.18797 96.0872 4.94886 97.1289 4.94886C97.8013 4.94886 98.4357 5.05777 99.0323 5.27557C99.6336 5.48864 100.164 5.82008 100.623 6.26989C101.087 6.7197 101.452 7.29261 101.717 7.98864C101.982 8.67992 102.115 9.50379 102.115 10.4602V11.2486H93.1729V9.51562H99.6502C99.6455 9.0232 99.5389 8.58523 99.3306 8.2017C99.1223 7.81345 98.8311 7.50805 98.457 7.28551C98.0877 7.06297 97.6568 6.9517 97.1644 6.9517C96.6388 6.9517 96.1772 7.07955 95.7795 7.33523C95.3817 7.58617 95.0716 7.91761 94.8491 8.32955C94.6313 8.73674 94.52 9.18419 94.5153 9.67188V11.1847C94.5153 11.8191 94.6313 12.3636 94.8633 12.8182C95.0953 13.268 95.4196 13.6136 95.8363 13.8551C96.253 14.0919 96.7406 14.2102 97.2994 14.2102C97.6734 14.2102 98.012 14.1581 98.315 14.054C98.618 13.9451 98.8808 13.7865 99.1033 13.5781C99.3259 13.3698 99.494 13.1117 99.6076 12.804L102.008 13.0739C101.857 13.7083 101.568 14.2623 101.142 14.7358C100.72 15.2045 100.181 15.5691 99.5224 15.8295C98.8642 16.0852 98.1114 16.2131 97.2638 16.2131ZM119.513 11.2486L109.798 15.7372V13.2159L116.701 10.2543L116.623 10.3892V10.0625L116.701 10.1974L109.798 7.2358V4.71449L119.513 9.20312V11.2486ZM132.971 11.2486L123.255 15.7372V13.2159L130.158 10.2543L130.08 10.3892V10.0625L130.158 10.1974L123.255 7.2358V4.71449L132.971 9.20312V11.2486Z" fill="#085EAB"/>
</svg>
